<?xml version="1.0" encoding="utf-8"?>
<!-- Svg Vector Icons : http://www.onlinewebfonts.com/icon -->
<!DOCTYPE svg PUBLIC "-//W3C//DTD SVG 1.1//EN" "http://www.w3.org/Graphics/SVG/1.1/DTD/svg11.dtd">
<svg version="1.1" xmlns="http://www.w3.org/2000/svg" xmlns:xlink="http://www.w3.org/1999/xlink" x="0px" y="0px" viewBox="0 0 256 256" enable-background="new 0 0 256 256" xml:space="preserve">
<metadata> Svg Vector Icons : http://www.onlinewebfonts.com/icon </metadata>
<g><g><path fill="#000000" d="M245.4,180.8c-4.5,8.7-16.4,31.7-21.6,41.8c-3,5.8-6.4,2.6-6.4,2.6l20.9-39.6l-8.3-4.3c0.3-0.8,0.6-1.7,0.9-2.6l6,3.1l1.6-3.1l-6.5-3.4c0.5-1.7,1.1-3.4,1.5-5c4.4,2.3,8.6,4.5,11.2,5.8C246,176.8,246.5,178.6,245.4,180.8z M215.9,220.2c-1.7,8.2-6.9,5.3-6.9,5.3l12.1-56l-11.6-2.5c0.1-1.1,0.1-2.3,0.2-3.5l8.4,1.8l0.9-4.3l-9.1-1.9c0.1-2.2,0.1-4.5,0.2-6.7c6.1,1.3,12,2.5,15.6,3.3c1.9,0.4,3.1,2.5,2.5,5.5C225.7,173.5,218.9,205.9,215.9,220.2z M197.8,226.5h-33.7c-4,0-7.2-3.2-7.2-7.2v-67.4c0-4,3.2-7.2,7.2-7.2h33.7c4,0,7.2,3.2,7.2,7.2v67.4C205,223.3,201.8,226.5,197.8,226.5z M171.3,219.3h19.3v-4.8h-19.3V219.3z M171.3,149.4h-7.2v7.2h7.2V149.4z M195.4,151.8h-19.3v4.8h19.3V151.8z M197.8,161.5h-33.7v48.2h33.7L197.8,161.5L197.8,161.5z M168.9,93.1c0-4.7,1.3-10.2-8.2-15.3l-25.5-14.3c-5.3-2.8-4.8,3.3-4.8,3.3v150h14.4v9.7l-113.2,0h0h-12c-5.3,0-9.6-4.3-9.6-9.6V174c0-5.9,2.8-8.4,7.9-10.6L63,141.7V92c0-5.9-1-15.9,7.4-21.2l45.4-21.4c0,0,5-2,7.4-2.5c2.9-0.5,7.3,1,7.3,1l40,22.9c8.4,5.3,8,10.1,8,15.9v45.8h-9.6V93.1L168.9,93.1z M34.1,177.5c0-2.2-2.5-4-4.8-4s-4.8,1.8-4.8,4v4c0,2.2,2.5,4,4.8,4s4.8-1.8,4.8-4V177.5z M34.1,199.2c0-2.2-2.5-4-4.8-4s-4.8,1.8-4.8,4v4c0,2.2,2.5,4,4.8,4s4.8-1.8,4.8-4V199.2z M48.5,172.7c0-2.2-2.5-4-4.8-4c-2.3,0-4.8,1.8-4.8,4v4c0,2.2,2.5,4,4.8,4c2.3,0,4.8-1.8,4.8-4V172.7z M48.5,194.4c0-2.2-2.5-4-4.8-4c-2.3,0-4.8,1.8-4.8,4v4c0,2.2,2.5,4,4.8,4c2.3,0,4.8-1.8,4.8-4V194.4z M63,165.5c0-2.2-2.5-4-4.8-4c-2.3,0-4.8,1.8-4.8,4v4c0,2.2,2.5,4,4.8,4s4.8-1.8,4.8-4V165.5z M63,189.6c0-2.2-2.5-4-4.8-4c-2.3,0-4.8,1.8-4.8,4v4c0,2.2,2.5,4,4.8,4s4.8-1.8,4.8-4V189.6z M120.8,71.7c0-2.8,0-5.3-4.2-3.6L75.8,83.5c-2.1,0.7-3.2,3.2-3.2,6c0,0-1,5.5,3.2,4.3l40.8-15.4C121.5,76.4,120.8,71.7,120.8,71.7z M120.8,95.8c0-2.8,0-5.3-4.2-3.6l-40.7,15.4c-2.1,0.7-3.2,3.2-3.2,6c0,0-1,5.5,3.2,4.3l40.8-15.4C121.5,100.5,120.8,95.8,120.8,95.8z M120.8,119.9c0-2.8,0-5.3-4.2-3.6l-40.7,15.4c-2.1,0.7-3.2,3.2-3.2,6c0,0-1,5.5,3.2,4.3l40.7-15.4C121.5,124.6,120.8,119.9,120.8,119.9z M120.8,144c0-2.8,0-5.3-4.2-3.6l-40.7,15.4c-2.1,0.7-3.2,3.2-3.2,6c0,0-1,5.5,3.2,4.3l40.7-15.4C121.5,148.6,120.8,144,120.8,144z M116.4,30.9l2.8-1.4V40l6.3-3.1v2.4l-9.1,4.5L116.4,30.9L116.4,30.9z M104.7,36.6l9.6-4.7v2.4l-6.8,3.3v2.8l6.2-3.1v2.2l-6.2,3.1v3.2l6.9-3.4v2.4l-9.8,4.8V36.6z M99.3,52.1l-2.8,1.4V43l-3.9,1.9v-2.4l10.5-5.2v2.4l-3.9,1.9V52.1z M85.4,59.3c-4,2-6.3,0.1-6.3-3.6c0-3.8,2.3-7.9,6.3-9.9c4-2,6.3-0.1,6.3,3.7C91.7,53.2,89.4,57.3,85.4,59.3z M85.4,48.2c-2.6,1.3-3.5,3.9-3.5,6.1c0,2.1,1,3.8,3.5,2.6c2.6-1.3,3.5-3.9,3.5-6C88.9,48.6,87.9,46.9,85.4,48.2z M74.3,58.9l-5.2,2.6V67l-2.8,1.4V55.5l2.8-1.4V59l5.2-2.6v-4.9l2.8-1.4V63l-2.8,1.4V58.9z"/></g></g>
</svg>